# xmcd CD database file
#
# Track frame offsets:
#	150
#	11842
#	24470
#	41670
#	59715
#	76832
#	91325
#	105160
#	119977
#	137757
#	150860
#	167220
#	180967
#	193957
#	212147
#	224860
#	241150
#	256267
#	271117
#	290452
#
# Disc length: 4121 seconds
#
# Revision: 0
# Processed by: cddbd v1.5.1PL2 Copyright (c) Steve Scherf et al.
# Submitted via: CDex 1.51
#
DISCID=1f101714
DTITLE=Various Artist - Top Hits USA RC 19
DYEAR=1993
DGENRE=Country
TTITLE0=Alan Jackson - Chattahoochee
TTITLE1=Tracy Lawrence - Can't Break It To My Heart
TTITLE2=Clint Black w Wynonna - A Bad Goodbye
TTITLE3=Billy Ray Cyrus - In The Heart Of A Woman
TTITLE4=Hal Ketchum - Mama Knows The Highway
TTITLE5=Reba McEntire - It's Your Call
TTITLE6=Brooks and Dunn - We'll Burn That Bridge
TTITLE7=Sawyer Brown - Thank God For You
TTITLE8=Mary Chapin Carpenter - The Hard Way
TTITLE9=George Strait - When Did You Stop Living Me
TTITLE10=Tanya Tucker w Delbert McClinton - Tell Me About It
TTITLE11=Mark Chesnutt - It Sure Is Monday
TTITLE12=Sammy Kershaw - Haunted Heart
TTITLE13=Confederate Railroad - When You Leave That Way You Can Never Go Back
TTITLE14=Restless Heart - We Got The Love
TTITLE15=Doug Supernaw - Reno
TTITLE16=Carlene Carter - Every Little Thing
TTITLE17=Doug Stone - Why Didn't I Think Of That
TTITLE18=Lorrie Morgan - I Guess You Had To Be There
TTITLE19=Little Texas - What Might Have Been
EXTD=YEAR: 1993
EXTT0=
EXTT1=
EXTT2=
EXTT3=
EXTT4=
EXTT5=
EXTT6=
EXTT7=
EXTT8=
EXTT9=
EXTT10=
EXTT11=
EXTT12=
EXTT13=
EXTT14=
EXTT15=
EXTT16=
EXTT17=
EXTT18=
EXTT19=
PLAYORDER=
